**ABCDEFGHIJKLMNOPQRSTUVWXYZabcdefghijklmnopqrstuvwxyz**************************
**PARASOLID !"#$%&'()*+,-./:;<=>?@[\]^_`{|}~0123456789**************************
**PART1;
MC=AMD64;
MC_MODEL=AMD64 Family 23 Model 8 Stepping 2, AuthenticAMD;
MC_ID=unknown;
OS=Windows_NT;
OS_RELEASE=unknown;
FRU=Parasolid Version 34.1, build 254,  2-10-2023;
APPL=SOLIDWORKS 2023-2023281;
SITE=;
USER=unknown;
FORMAT=text;
GUISE=transmit;
KEY=Nozzle_14mmThroat;
FILE=Nozzle_14mmThroat.x_t;
DATE=Mon Aug 25 22:26:26 2025;
**PART2;
SCH=SCH_3401254_34101;
USFLD_SIZE=0;
**PART3;
**END_OF_HEADER*****************************************************************
T51 : TRANSMIT FILE created by modeller version 340125423 SCH_3401254_34101_1300
6231 0 12 36 CCCI7 lattice222 0 CCCI4 mesh1006 0 I8 polyline1008 0 CCCCCCCDI5 ow
ner1040 0 CCCI16 boundary_lattice222 0 CCCI13 boundary_mesh1006 0 I17 boundary_p
olyline1008 0 CCCA16 index_map_offset0 0 1 dA9 index_map82 0 A17 node_id_index_m
ap82 0 A20 schema_embedding_map82 0 A5 child12 0 A14 lowest_node_id0 0 1 dA16 me
sh_offset_data206 0 Z1 909 2 3 0 0 0 0 0 0 0 1e3 1e-8 0 4 0 1 0 1 1 5 0 6 7 0 0
 0 8 9 0 0 0 0 0 0 0 0 81 255 2 2 861 10 1 11 0 0 0 0 12 70 11 CI9 list_type0 0
 1 uI10 notransmit0 0 1 lCCCDCCDI12 finger_index0 0 1 dI12 finger_block1012 0 CZ
3 0 4 T1 0 0 11 20 1 13 13 13 255 5 83 0 1 0 14 0 0 15 0 54 255 6 726 0 16 17 0
 0 +0 0 .03944453818215505 0 0 -1 .0203363572758386 .002 -1 0 0 31 255 7 709 0 9
 18 0 0 +0 0 .04144453818215505 0 0 -1 -1 0 0 .0203363572758386 19 9 CCCCCCI5 fr
ame230 0 CA5 owner12 0 Z8 87 0 1 15 0 19 0 V0 16 255 9 706 0 ?20 0 21 7 0 0 1 17
 255 20 0 22 20 20 0 23 9 0 0 +16 21 699 0 ?24 9 25 18 0 0 1 17 24 0 26 24 24 0
 27 21 0 0 +16 25 651 0 ?28 21 29 30 0 0 1 31 18 702 0 21 30 7 0 -0 0 .040209905
0468852 0 0 -1 -1 0 0 .01848859821081605 31 30 654 0 25 31 18 0 +0 0 -.047161531
2759034 0 0 1 1 0 0 .01787705028494675 31 31 647 0 29 32 30 0 -0 0 -.04742258366
03435 0 0 1 1 0 0 .01488553160161894 16 29 644 0 ?33 25 34 31 0 0 1 31 32 640 0
 34 35 31 0 +0 0 -.0482920574681234 0 0 1 1 0 0 .01587697646299275 16 34 637 0 ?
36 29 37 32 0 0 1 31 35 633 0 37 38 32 0 -0 0 -.0482920574681234 0 0 1 1 0 0 .01
68856054235729 16 37 630 0 ?39 34 40 35 0 0 1 31 38 603 0 40 41 35 0 +0 0 .00917
449056678364 0 0 -1 -1 0 0 .01046027230521882 16 40 600 0 ?42 37 43 38 0 0 1 31
 41 596 0 43 44 38 0 +0 0 .0141482660703498 0 0 1 1 0 0 .0129020026559995 16 43
 593 0 ?45 40 46 41 0 0 1 38 12 CCCCCCCCCCCA17 intersection_data204 0 Z44 420 0
 46 47 41 0 +48 49 50 51 51 52 16 46 418 0 ?53 43 54 44 0 0 1 38 47 402 0 54 55
 44 0 +48 56 57 58 58 59 51 255 48 149 0 60 61 62 63 -0 0 0 0 0 1 .022 1 0 0 51
 49 552 0 64 65 66 67 +-.017 -178065548281e-27 .02694453818215505 -1 -1047444401
65294e-28 0 .0025 104744440165294e-28 -1 0 40 255 20 50 0 1 20 .0001421773327251
716 .3393198605113725 ??-.02185749299439435 -.00250000000000023 .026944538182155
05 -.0218730375304432 -.002360133299587875 .02612005603669795 -.021912805431307
 -.001956772375541465 .0253885684297759 -.0219596190690293 -.001332340175452624
 .0248291494101144 -.02199299290669625 -.000555214378423135 .02450697033817765 -
.02199819609225955 .000281724486862227 .0244604626371077 -.0219733190402994 .001
08316681689167 .0246913738191348 -.02192909683886515 .001764854620549485 .025173
86368684985 -.02188447010857575 .002251658958824265 .0258582454347129 -.02185926
450583355 .002484462771708545 .02666624923880085 -.021864586617313 .002437181169
7156 .02750144746200465 -.02189775398336295 .002118577467102135 .028271802103116
55 -.02194447901748355 .00156199892804866 .02889650112974755 -.02198447279588665
 .000826411451348715 .02930399661855085 -.02199999994781205 -1515345036783865e-2
1 .0294445377229009 -.0219845347643486 -.000824761295858878 .0293045739456242 -.
0219449598945299 -.00155522835219567 .02890189986884645 -.0218981125232441 -.002
114868298343965 .02827770436859265 -.02186456762165745 -.00243735157865441 .0275
0070118167225 -.02185749299439435 -.00250000000000023 .02694453818215505 41 3 CI
8 term_use0 0 1 cCZ1 51 H?-.02185749299439435 -.00250000000000023 .0269445381821
5505 204 2 17 INTERSECTION_DATA17 Intersection data7 uv_type0 0 1 u6 values0 1 1
 fT80 52 4 3.255475018043085 .02694453818215505 0 .00485749299439439 3.249078286
88939 .02612005603669795 5.94710115793499 .00487303753044322 3.23065454591941 .0
253885684297759 5.6113954748885 .00491280543130703 3.202190651006015 .0248291494
101144 5.27445566358219 .00495961906902931 3.166832350497915 .02450697033817765
 4.93634210424446 .00499299290669627 3.128786645081145 .0244604626371077 4.59945
930452412 .00499819609225952 3.092337885082955 .0246913738191348 4.264274749089
 .0049733190402994 3.061285697483085 .02517386368684985 3.92863692689275 .004929
09683886512 3.03906498633588 .0258582454347129 3.591094699601045 .00488447010857
575 3.028421102496225 .02666624923880085 3.253139410474305 .00485926450583352 3.
030583838959215 .02750144746200465 2.91694414978179 .004864586617313 3.045144215
275205 .02827180210311655 2.581923841216895 .00489775398336291 3.070532914880165
 .02889650112974755 2.24567113178926 .00494447901748351 3.104019656845995 .02930
399661855085 1.90769804920781 .00498447279588663 3.1416615329097 .02944453772290
09 1.57019018874316 .00499999994781204 3.179090590395665 .0293045739456242 1.234
593897718584 .00498453476434863 3.212343863597885 .02890189986884645 .8993853267
88561 .00494495989452994 3.237871707483195 .02827770436859265 .562457208388293 .
00489811252324411 3.25260926205685 .02750070118167225 .224342308172409 .00486456
762165747 ????14 255 64 444 68 ?69 70 71 5 49 -0 0 69 70 19 50 255 65 554 0 69 0
 49 0 +-.017 -178065548281e-27 .02694453818215505 -1 -104744440165294e-28 0 1047
44440165294e-28 -1 0 50 66 551 0 70 49 56 0 +1187103655206664e-31 -.017 .0269445
3818215505 698296267768627e-29 -1 0 1 698296267768627e-29 0 141 255 67 44 67 67
 49 14 70 497 72 ?64 73 74 5 66 +0 0 64 73 19 51 56 549 0 73 66 75 76 +118710365
5206664e-31 -.017 .02694453818215505 698296267768627e-29 -1 0 .0025 1 6982962677
68627e-29 0 14 73 481 77 ?70 78 79 5 56 -0 0 70 78 19 50 75 548 0 78 56 80 0 +.0
17 2967759138016665e-31 .02694453818215505 1 1745740669421565e-29 0 -17457406694
21565e-29 1 0 141 76 47 76 76 56 14 78 534 81 ?73 82 83 5 75 +0 0 73 82 19 51 80
 546 0 82 75 84 85 +.017 2967759138016665e-31 .02694453818215505 1 1745740669421
565e-29 0 .0025 -1745740669421565e-29 1 0 14 82 518 86 ?78 87 88 5 80 -0 0 78 87
 19 50 84 357 0 87 80 89 0 +-1187103655206664e-31 .017 .02694453818215505 -69829
6267768627e-29 1 0 -1 -698296267768627e-29 0 141 85 55 85 85 80 38 55 384 0 90 9
1 47 0 +48 80 92 93 93 94 16 90 382 0 ?95 54 96 55 0 0 1 38 91 307 0 96 97 55 0
 +48 89 98 99 99 100 40 20 92 0 1 20 .0001421636664211796 .339332393408336 ??.02
2 0 .02444453818215505 .0219845444698233 -.000824502549639575 .0245844120106046
 .02194490456222415 -.001556008918635505 .0249877969511473 .0218980610779425 -.0
0211540091394029 .0256122172848863 .0218645428664387 -.00243757363820342 .026389
34924284345 .0218593089974215 -.002484071286265315 .0272263002178346 .0218843139
3928075 -.00225317629292569 .02802768018253905 .02192862478285445 -.001770710346
946225 .0287093568321064 .021973163833564 -.00108631079500964 .0291961884340025
 .0219982393054229 -.0002783297708605735 .02942899638036495 .0219929506942418 .0
0055688397413592 .02938172513422725 .02195992430613745 .00132729969061738 .02906
30932395675 .0219132324134153 .00195198493735104 .0285065096301515 .021873109723
222 .002359464141683575 .02777093334435725 .02185749304990665 .00249999951465643
5 .02694298038900305 .02187304797180335 .00236003653005401 .0261197790798637 .02
19127497747942 .00195739554185056 .0253893524399541 .02195956754425005 .00133318
9134938996 .0248296843502126 .02199296818974695 .000556192596839066 .02450719335
73053 .022 -481617541243684e-33 .02444453818215505 41 1 93 H?.022 0 .02444453818
215505 204 80 94 4 0 .02444453818215505 4.71238898038454 .005 6.24569913983643 .
0245844120106046 4.376296185775155 .00498454446982328 6.21239852784589 .02498779
69511473 4.040579132189375 .00494490456222414 6.18688193081449 .0256122172848863
 3.70365022350818 .00489806107794247 6.17215854256956 .02638934924284345 3.36553
534119395 .00486454286643867 6.17003166542806 .0272263002178346 3.02864786190499
 .00485930899742145 6.18058830584963 .02802768018253905 2.69348943633399 .004884
31393928071 6.20261131821547 .0287093568321064 2.35786091452282 .004928624782854
4 6.23378745654617 .0291961884340025 2.020306388053175 .004973163833564 6.270533
61644529 .02942899638036495 1.68235951682739 .00499823930542289 .025315611874374
75 .02938172513422725 1.34615820616413 .00499295069424181 .0603684647560083 .029
0630932395675 1.01111063052456 .00495992430613749 .0888434177237988 .02850650963
01515 .674860726910723 .00491323241341533 .1074550405298918 .02777093334435725 .
336894818656192 .00487310972322206 .113882342248378 .02694298038900305 6.2825621
8987846 .0048574930499067 .1074812091536322 .0261197790798637 5.94698380756671 .
00487304797180339 .0890903308197241 .0253893524399541 5.61179607608101 .00491274
977479424 .0606366574894935 .0248296843502126 5.27485703984086 .0049595675442500
8 .02528417557319755 .0245071933573053 4.9367434318042 .00499296818974696 ????16
 96 305 0 ?101 90 102 91 0 0 1 31 97 273 0 102 103 91 0 +0 0 .01272152820831734
 0 0 -1 -1 0 0 .00710253971665899 51 89 355 0 104 84 105 106 +-1187103655206664e
-31 .017 .02694453818215505 -698296267768627e-29 1 0 .0025 -1 -698296267768627e-
29 0 40 20 98 0 1 20 .000142177332725173 .3393198605113735 ??-.00250000000000015
5 .0218574929943944 .02694453818215505 -.0023601332995878 .0218730375304432 .026
12005603669795 -.001956772375541385 .021912805431307 .0253885684297759 -.0013323
40175452546 .0219596190690293 .0248291494101144 -.000555214378423058 .0219929929
0669625 .02450697033817765 .000281724486862303 .02199819609225955 .0244604626371
077 .001083166816891744 .0219733190402994 .0246913738191348 .00176485462054956 .
02192909683886515 .02517386368684985 .00225165895882434 .02188447010857575 .0258
582454347129 .00248446277170862 .02185926450583355 .02666624923880085 .002437181
169715675 .021864586617313 .02750144746200465 .002118577467102215 .0218977539833
629 .02827180210311655 .001561998928048735 .0219444790174835 .02889650112974755
 .000826411451348792 .02198447279588665 .02930399661855085 -1515345036706945e-21
 .02199999994781205 .0294445377229009 -.000824761295858801 .0219845347643486 .02
93045739456242 -.001555228352195595 .02194495989452995 .02890189986884645 -.0021
1486829834389 .0218981125232441 .02827770436859265 -.002437351578654335 .0218645
6762165745 .02750070118167225 -.002500000000000155 .0218574929943944 .0269445381
8215505 41 1 99 H?-.002500000000000155 .0218574929943944 .02694453818215505 204
 80 100 4 1.684678691248185 .02694453818215505 0 .0048574929943944 1.67828196009
449 .02612005603669795 5.94710115793499 .00487303753044322 1.65985821912451 .025
3885684297759 5.6113954748885 .00491280543130703 1.631394324211115 .024829149410
1144 5.27445566358219 .0049596190690293 1.596036023703015 .02450697033817765 4.9
3634210424446 .00499299290669627 1.557990318286245 .0244604626371077 4.599459304
52412 .00499819609225953 1.521541558288055 .0246913738191348 4.264274749089 .004
9733190402994 1.490489370688184 .02517386368684985 3.92863692689275 .00492909683
886512 1.46826865954098 .0258582454347129 3.591094699601045 .00488447010857575 1
.457624775701324 .02666624923880085 3.253139410474305 .00485926450583352 1.45978
7512164316 .02750144746200465 2.91694414978179 .004864586617313 1.47434788848030
4 .02827180210311655 2.581923841216895 .00489775398336291 1.499736588085266 .028
89650112974755 2.24567113178926 .00494447901748351 1.533223330051095 .0293039966
1855085 1.90769804920781 .00498447279588663 1.5708652061148 .0294445377229009 1.
57019018874316 .00499999994781204 1.608294263600765 .0293045739456242 1.23459389
7718584 .00498453476434863 1.641547536802985 .02890189986884645 .899385326788561
 .00494495989452994 1.667075380688295 .02827770436859265 .562457208388293 .00489
811252324412 1.68181293526195 .02750070118167225 .224342308172409 .0048645676216
5747 ????14 104 331 107 ?87 108 109 5 89 -0 0 87 108 19 50 105 144 0 110 89 111
 0 +-.022 0 .04144453818215505 0 0 -1 -1 0 0 141 106 91 106 106 89 14 110 94 112
 ?108 113 22 5 105 -0 0 108 113 19 51 111 145 0 113 105 114 0 -0 0 0 0 0 1 .022
 1 0 0 14 113 99 115 ?110 116 117 5 111 -0 0 110 116 19 50 114 146 0 116 111 118
 0 +-.022 0 .03644453818215505 0 0 1 1 0 0 14 116 104 119 ?113 120 121 5 114 -0
 0 113 120 19 51 118 147 0 120 114 61 0 -0 0 0 0 0 1 .019 1 0 0 14 120 109 122 ?
116 123 124 5 118 -0 0 116 123 19 50 61 148 0 123 118 48 0 +-.019 0 .03284453818
215505 0 0 -1 -1 0 0 14 123 114 125 ?120 60 126 5 61 -0 0 120 60 19 81 1 125 883
 127 123 128 0 122 129 130 14 60 119 129 ?123 131 132 5 48 -0 0 123 131 19 15 25
5 126 214 0 133 123 134 13 19 86 0 0 0 0 0 0 8 14 14 14 142 135 ?136 0 26 5 137
 -0 0 136 0 19 81 1 135 887 127 14 138 0 129 139 140 14 136 139 139 ?141 14 142
 5 143 -0 0 141 14 19 15 26 700 0 24 14 144 52 255 137 154 0 14 143 145 0 +0 0 .
04144453818215505 0 0 1 .019 .382683432365083 .92387953251129 1 0 0 52 143 153 0
 136 146 137 0 +0 0 .0124739754336773 0 0 -1 .007 .1305261922200526 .99144486137
381 -1 0 0 54 145 290 0 108 137 147 0 +0 0 .01233884477595226 0 0 -1 .0080264192
4917028 .001 -1 0 0 14 108 283 148 ?104 110 149 5 145 +0 0 104 110 19 54 147 620
 0 150 145 151 0 +0 0 .0098271215278839 0 0 1 .0154174966120879 .005 1 0 0 14 15
0 613 152 ?153 69 154 5 147 -0 0 153 69 19 54 151 672 0 153 147 17 0 +0 0 -.0472
920574681234 0 0 1 .01587697646299275 .001 1 0 0 14 153 665 155 ?156 150 157 5 1
51 +0 0 156 150 19 54 17 685 0 156 151 6 0 +0 0 -.0472920574681234 0 0 1 .016885
6054235729 .001 1 0 0 14 156 678 158 ?16 153 159 5 17 +0 0 16 153 19 81 1 158 89
7 127 156 160 0 155 161 162 14 16 719 161 ?0 156 163 5 6 +0 0 0 156 19 15 159 67
9 0 164 156 165 17 164 0 159 164 164 0 39 37 0 0 -15 165 680 0 166 156 0 17 166
 0 165 166 166 0 28 25 0 0 -17 28 0 167 28 28 0 166 25 0 0 +15 167 652 0 28 168
 169 14 168 129 170 ?131 141 167 5 171 -0 0 131 141 19 15 169 601 0 42 168 0 17
 42 0 169 42 42 0 172 40 0 0 +17 172 0 154 172 172 0 42 40 0 0 -15 154 614 0 172
 150 173 15 173 615 0 174 150 0 17 174 0 173 174 174 0 45 43 0 0 -17 45 0 175 45
 45 0 174 43 0 0 +15 175 594 0 45 131 176 14 131 124 177 ?60 168 175 5 62 -0 0 6
0 168 19 15 176 216 0 178 131 0 17 178 0 176 178 178 0 179 180 0 0 -17 179 0 181
 179 179 0 178 180 0 0 +16 180 116 0 ?179 182 183 184 0 0 1 16 182 263 0 ?185 10
2 180 103 0 0 1 16 183 111 0 ?186 180 187 188 0 0 1 31 184 161 0 180 188 103 0 +
0 0 .01944453818215505 0 0 1 1 0 0 .022 31 188 160 0 183 189 184 0 +0 0 .0328445
3818215505 0 0 1 1 0 0 .022 31 103 266 0 182 184 97 0 +0 0 .01220831858373222 0
 0 1 1 0 0 .00703497438779647 31 189 159 0 187 190 188 0 +0 0 .03284453818215505
 0 0 1 1 0 0 .019 16 187 106 0 ?191 183 192 189 0 0 1 31 190 158 0 192 193 189 0
 +0 0 .03644453818215505 0 0 1 1 0 0 .019 16 192 101 0 ?194 187 195 190 0 0 1 31
 193 157 0 195 196 190 0 +0 0 .03644453818215505 0 0 1 1 0 0 .022 16 195 96 0 ?1
97 192 198 193 0 0 1 31 196 156 0 198 199 193 0 +0 0 .04144453818215505 0 0 1 1
 0 0 .022 16 198 91 0 ?200 195 201 196 0 0 1 31 199 359 0 201 202 196 0 +-118710
3655206664e-31 .017 .02694453818215505 -698296267768627e-29 1 0 -1 -698296267768
627e-29 0 .0025 16 201 317 0 ?203 198 204 199 0 0 1 31 202 556 0 205 206 199 0 +
.017 2967759138016665e-31 .02694453818215505 1 1745740669421565e-29 0 -174574066
9421565e-29 1 0 .0025 16 205 504 0 ?207 208 0 202 0 0 1 31 206 558 0 208 209 202
 0 +1187103655206664e-31 -.017 .02694453818215505 698296267768627e-29 -1 0 1 698
296267768627e-29 0 .0025 16 208 467 0 ?210 204 205 206 0 0 1 31 209 560 0 204 0
 206 0 +-.017 -178065548281e-27 .02694453818215505 -1 -104744440165294e-28 0 104
744440165294e-28 -1 0 .0025 16 204 430 0 ?211 201 208 209 0 0 1 17 211 0 212 211
 211 0 213 204 0 0 +15 212 462 0 211 69 0 17 213 0 71 213 213 0 211 204 0 0 -15
 71 447 0 213 64 214 15 214 448 0 215 64 0 17 215 0 214 215 215 0 53 46 0 0 -17
 53 0 132 53 53 0 215 46 0 0 +15 132 412 0 53 60 216 15 216 394 0 217 60 218 17
 217 0 216 217 217 0 219 54 0 0 +15 218 376 0 95 60 220 17 95 0 218 95 95 0 221
 90 0 0 +15 220 299 0 101 60 222 17 101 0 220 101 101 0 223 96 0 0 +15 222 215 0
 224 60 181 17 224 0 222 224 224 0 186 183 0 0 -15 181 118 0 179 60 0 17 186 0 1
34 186 186 0 224 183 0 0 +15 134 113 0 186 123 0 17 223 0 225 223 223 0 101 96 0
 0 -15 225 335 0 223 104 0 17 221 0 226 221 221 0 95 90 0 0 -15 226 522 0 221 82
 0 17 219 0 227 219 219 0 217 54 0 0 -16 54 400 0 ?217 46 90 47 0 0 1 15 227 485
 0 219 73 0 14 69 460 228 ?150 64 212 5 65 +0 0 150 64 19 81 1 228 905 127 69 22
9 0 177 230 231 80 7 CCCCCDI12 legal_owners0 16 1 lCZ1 127 232 233 9000 1 1 1 1
 1 1 1 1 0 FFFFTFTFFFFFFFFF1 81 3 229 904 234 69 235 228 236 237 238 0 0 81 1 17
7 903 127 131 236 0 170 228 239 81 1 230 907 127 87 237 0 228 240 241 82 255 1 2
31 -1464008222 14 87 347 230 ?82 104 242 5 84 +0 0 82 104 19 81 3 237 906 234 87
 243 230 229 244 245 0 0 81 1 240 909 127 141 244 0 230 0 246 82 1 241 -14785572
15 14 141 134 240 ?168 136 247 5 146 -0 0 168 136 19 81 3 244 908 234 141 248 24
0 237 0 249 0 0 82 1 246 -1498152476 80 3 234 250 251 9000 0 0 0 0 3 5 0 0 0 FFF
FTFFFFFFFFFFF1 1 1 81 1 248 765 252 141 0 244 253 254 255 82 6 249 0 -472515316
 31200807 0 0 0 80 1 252 0 256 8001 0 0 0 0 3 5 0 0 0 FFFFTFTFFFFFFFFF2 81 1 253
 764 252 136 0 257 258 248 259 81 1 254 766 252 168 0 260 248 261 262 83 255 3 2
55 .776470588235294 .756862745098039 .737254901960784 81 3 260 900 234 168 254 1
70 263 236 264 0 0 81 1 261 767 252 131 0 236 254 265 266 83 3 262 .776470588235
294 .756862745098039 .737254901960784 81 3 236 902 234 131 261 177 260 229 267 0
 0 81 1 265 768 252 60 0 268 261 269 270 83 3 266 .776470588235294 .756862745098
039 .737254901960784 81 3 268 884 234 60 265 129 128 138 271 0 0 81 1 269 769 25
2 123 0 128 265 272 273 83 3 270 .776470588235294 .756862745098039 .737254901960
784 81 3 128 882 234 123 269 125 274 268 275 0 0 81 1 272 770 252 120 0 274 269
 276 277 83 3 273 .776470588235294 .756862745098039 .737254901960784 81 3 274 88
0 234 120 272 122 278 128 279 0 0 81 1 276 771 252 116 0 278 272 280 281 83 3 27
7 .776470588235294 .756862745098039 .737254901960784 81 3 278 878 234 116 276 11
9 282 274 283 0 0 81 1 280 772 252 113 0 282 276 284 285 83 3 281 .7764705882352
94 .756862745098039 .737254901960784 81 3 282 876 234 113 280 115 286 278 287 0
 0 81 1 284 773 252 110 0 286 280 288 289 83 3 285 .776470588235294 .75686274509
8039 .737254901960784 81 3 286 874 234 110 284 112 290 282 291 0 0 81 1 288 774
 252 108 0 292 284 293 294 83 3 289 .776470588235294 .756862745098039 .737254901
960784 81 3 292 890 234 108 288 148 257 295 296 0 0 81 1 293 775 252 104 0 290 2
88 243 297 83 3 294 .776470588235294 .756862745098039 .737254901960784 81 3 290
 872 234 104 293 107 298 286 299 0 0 81 1 243 776 252 87 0 237 293 300 301 83 3
 297 .776470588235294 .756862745098039 .737254901960784 81 1 300 777 252 82 0 29
8 243 302 303 83 3 301 .776470588235294 .756862745098039 .737254901960784 81 3 2
98 870 234 82 300 86 304 290 305 0 0 81 1 302 778 252 78 0 304 300 306 307 83 3
 303 .776470588235294 .756862745098039 .737254901960784 81 3 304 868 234 78 302
 81 308 298 309 0 0 81 1 306 779 252 73 0 308 302 310 311 83 3 307 .776470588235
294 .756862745098039 .737254901960784 81 3 308 866 234 73 306 77 312 304 313 0 0
 81 1 310 780 252 70 0 312 306 314 315 83 3 311 .776470588235294 .75686274509803
9 .737254901960784 81 3 312 864 234 70 310 72 316 308 317 0 0 81 1 314 781 252 6
4 0 316 310 235 318 83 3 315 .776470588235294 .756862745098039 .737254901960784
 81 3 316 862 234 64 314 68 0 312 319 0 0 81 1 235 782 252 69 0 229 314 320 321
 83 3 318 .776470588235294 .756862745098039 .737254901960784 81 1 320 783 252 15
0 0 295 235 322 323 83 3 321 .776470588235294 .756862745098039 .737254901960784
 81 3 295 892 234 150 320 152 292 324 325 0 0 81 1 322 784 252 153 0 324 320 326
 327 83 3 323 .776470588235294 .756862745098039 .737254901960784 81 3 324 894 23
4 153 322 155 295 160 328 0 0 81 1 326 785 252 156 0 160 322 329 330 83 3 327 .7
76470588235294 .756862745098039 .737254901960784 81 3 160 896 234 156 326 158 32
4 263 331 0 0 81 1 329 786 252 16 0 263 326 0 332 83 3 330 .776470588235294 .756
862745098039 .737254901960784 81 3 263 898 234 16 329 161 160 260 333 0 0 83 3 3
32 .776470588235294 .756862745098039 .737254901960784 81 1 161 899 127 16 263 0
 158 170 334 82 6 333 0 -472359054 31200807 0 0 0 81 1 170 901 127 168 260 0 161
 177 335 82 1 334 -1414200859 82 1 335 -1498742300 82 6 331 0 -472515316 3120080
7 0 0 0 81 1 155 895 127 153 324 0 152 158 336 82 6 328 0 -472515316 31200807 0
 0 0 81 1 152 893 127 150 295 0 148 155 337 82 1 336 -1422720540 81 1 148 891 12
7 108 292 0 139 152 338 82 1 337 -1428356637 81 1 139 889 127 136 257 0 135 148
 339 82 1 338 -1486618146 81 3 257 888 234 136 253 139 138 292 340 0 0 82 1 339
 -1497562652 81 3 138 886 234 14 258 135 268 257 341 0 0 82 6 340 0 -472515316 3
1200807 0 0 0 81 1 258 763 252 14 0 138 0 253 342 82 6 341 0 -472359054 31200807
 0 0 0 83 3 342 .776470588235294 .756862745098039 .737254901960784 82 6 325 0 -4
72515316 31200807 0 0 0 81 1 68 863 127 64 316 0 0 72 343 82 6 319 0 -472671577
 31200807 0 0 0 81 1 72 865 127 70 312 0 68 77 344 82 1 343 -1432682014 81 1 77
 867 127 73 308 0 72 81 345 82 1 344 -1453981214 81 1 81 869 127 78 304 0 77 86
 346 82 1 345 -1434582558 81 1 86 871 127 82 298 0 81 107 347 82 1 346 -14465756
46 81 1 107 873 127 104 290 0 86 112 348 82 1 347 -1436483102 81 1 112 875 127 1
10 286 0 107 115 349 82 1 348 -1469644319 81 1 115 877 127 113 282 0 112 119 350
 82 1 349 -1502871067 81 1 119 879 127 116 278 0 115 122 351 82 1 350 -150228125
1 81 1 122 881 127 120 274 0 119 125 352 82 1 351 -1501691427 82 1 352 -15011016
03 82 6 317 0 -472671577 31200807 0 0 0 82 6 313 0 -472671577 31200807 0 0 0 82
 6 309 0 -472671577 31200807 0 0 0 82 6 305 0 -472671577 31200807 0 0 0 82 6 299
 0 -473140358 31200807 0 0 0 82 6 296 0 -474390440 31200807 0 0 0 82 6 291 0 -47
2359054 31200807 0 0 0 82 6 287 0 -474546699 31200807 0 0 0 82 6 283 0 -47454669
9 31200807 0 0 0 82 6 279 0 -474546699 31200807 0 0 0 82 6 275 0 -474546699 3120
0807 0 0 0 81 1 129 885 127 60 268 0 125 135 353 82 6 271 0 -472671577 31200807
 0 0 0 82 1 353 -1499921950 82 6 267 0 -472515316 31200807 0 0 0 82 6 264 0 -472
515316 31200807 0 0 0 83 3 259 .776470588235294 .756862745098039 .73725490196078
4 79 255 15 256 SDL/TYSA_COLOUR79 18 251 DOWNSTREAM_FACE_ID15 247 638 0 36 141 3
54 50 146 152 0 141 171 143 0 +-.015 0 -.0482920574681234 0 0 1 1 0 0 52 171 151
 0 168 62 146 0 -0 0 -.0482920574681234 0 0 -1 .01802588688174045 .1305261922200
526 .99144486137381 -1 0 0 52 62 150 0 131 48 171 0 -0 0 .0124739754336773 0 0 1
 .01002588688174046 .864228908493179 .503098791217678 1 0 0 17 36 0 247 36 36 0
 355 34 0 0 +15 354 631 0 39 141 0 17 39 0 354 39 39 0 164 37 0 0 +17 355 0 356
 355 355 0 36 34 0 0 -15 356 667 0 355 153 0 82 6 245 0 -473140358 31200807 0 0
 0 15 242 349 0 203 87 0 17 203 0 242 203 203 0 357 201 0 0 +17 357 0 109 357 35
7 0 203 201 0 0 -15 109 334 0 357 104 225 82 1 239 -1499332125 82 6 238 0 -47267
1577 31200807 0 0 0 79 14 233 SWEntUnchanged17 210 0 74 210 210 0 358 208 0 0 +1
5 74 499 0 210 70 0 17 358 0 79 358 358 0 210 208 0 0 -15 79 484 0 358 73 227 17
 207 0 83 207 207 0 359 205 0 0 +15 83 536 0 207 78 0 17 359 0 88 359 359 0 207
 205 0 0 -15 88 521 0 359 82 226 17 200 0 360 200 200 0 361 198 0 0 +15 360 93 0
 200 110 0 17 361 0 117 361 361 0 200 198 0 0 -15 117 211 0 361 113 362 15 362 9
8 0 197 113 0 17 197 0 362 197 197 0 363 195 0 0 +17 363 0 121 363 363 0 197 195
 0 0 -15 121 212 0 363 116 364 15 364 103 0 194 116 0 17 194 0 364 194 194 0 365
 192 0 0 +17 365 0 124 365 365 0 194 192 0 0 -15 124 213 0 365 120 366 15 366 10
8 0 191 120 0 17 191 0 366 191 191 0 133 187 0 0 +17 133 0 126 133 133 0 191 187
 0 0 -17 185 0 367 185 185 0 368 182 0 0 +16 102 270 0 ?369 96 182 97 0 0 1 17 3
69 0 144 369 369 0 370 102 0 0 +15 144 271 0 369 14 0 17 370 0 149 370 370 0 369
 102 0 0 -15 149 284 0 370 108 371 15 371 285 0 368 108 0 17 368 0 371 368 368 0
 185 182 0 0 -15 367 264 0 185 136 0 15 163 720 0 23 16 372 17 23 0 163 23 23 0
 20 9 0 0 -15 372 721 0 27 16 0 17 27 0 372 27 27 0 24 21 0 0 -82 1 162 -1421475
356 15 157 666 0 373 153 356 17 373 0 157 373 373 0 33 29 0 0 -17 33 0 142 33 33
 0 373 29 0 0 +15 142 645 0 33 136 367 82 1 140 -1497234971 82 1 130 -1500511779
 15 22 707 0 20 110 360 141 63 91 374 375 48 141 374 44 376 63 48 141 375 55 63
 376 48 141 376 47 375 374 48 40 20 57 0 1 20 .000142177332725173 .3393198605113
735 ??.002500000000000155 -.0218574929943944 .02694453818215505 .002360133299587
8 -.0218730375304432 .02612005603669795 .001956772375541385 -.021912805431307 .0
253885684297759 .001332340175452546 -.0219596190690293 .0248291494101144 .000555
214378423058 -.02199299290669625 .02450697033817765 -.000281724486862303 -.02199
819609225955 .0244604626371077 -.001083166816891744 -.0219733190402994 .02469137
38191348 -.00176485462054956 -.02192909683886515 .02517386368684985 -.0022516589
5882434 -.02188447010857575 .0258582454347129 -.00248446277170862 -.021859264505
83355 .02666624923880085 -.002437181169715675 -.021864586617313 .027501447462004
65 -.002118577467102215 -.0218977539833629 .02827180210311655 -.0015619989280487
35 -.0219444790174835 .02889650112974755 -.000826411451348792 -.0219844727958866
5 .02930399661855085 1515345036706945e-21 -.02199999994781205 .0294445377229009
 .000824761295858801 -.0219845347643486 .0293045739456242 .001555228352195595 -.
02194495989452995 .02890189986884645 .00211486829834389 -.0218981125232441 .0282
7770436859265 .002437351578654335 -.02186456762165745 .02750070118167225 .002500
000000000155 -.0218574929943944 .02694453818215505 41 1 58 H?.002500000000000155
 -.0218574929943944 .02694453818215505 204 80 59 4 4.82627134483798 .02694453818
215505 0 .0048574929943944 4.81987461368429 .02612005603669795 5.94710115793499
 .00487303753044322 4.8014508727143 .0253885684297759 5.6113954748885 .004912805
43130703 4.77298697780091 .0248291494101144 5.27445566358219 .0049596190690293 4
.73762867729281 .02450697033817765 4.93634210424446 .00499299290669627 4.6995829
7187604 .0244604626371077 4.59945930452412 .00499819609225953 4.66313421187785 .
0246913738191348 4.264274749089 .0049733190402994 4.63208202427798 .025173863686
84985 3.92863692689275 .00492909683886512 4.60986131313077 .0258582454347129 3.5
91094699601045 .00488447010857575 4.59921742929112 .02666624923880085 3.25313941
0474305 .00485926450583352 4.60138016575411 .02750144746200465 2.91694414978179
 .004864586617313 4.6159405420701 .02827180210311655 2.581923841216895 .00489775
398336291 4.64132924167506 .02889650112974755 2.24567113178926 .0049444790174835
1 4.67481598364089 .02930399661855085 1.90769804920781 .00498447279588663 4.7124
5785970459 .0294445377229009 1.57019018874316 .00499999994781204 4.7498869171905
6 .0293045739456242 1.234593897718584 .00498453476434863 4.78314019039278 .02890
189986884645 .899385326788561 .00494495989452994 4.80866803427809 .0282777043685
9265 .562457208388293 .00489811252324412 4.82340558885174 .02750070118167225 .22
4342308172409 .00486456762165747 ????19 15 82 0 1 0 8 5 0 S0 74 4 CI16 index_map
_offset0 0 1 dCCZ20 13 11 0 0 244 377 378 379 240 380 381 382 329 11 2 0 0 0 0 0
 0 0 0 0 81 2 377 243 383 1 0 378 0 0 0 384 81 2 378 247 385 1 377 379 0 0 0 386
 81 2 379 248 387 1 378 380 0 0 388 0 81 1 380 733 389 1 379 381 0 0 390 81 2 38
1 735 391 1 380 382 0 0 0 0 81 2 382 762 392 1 381 11 0 0 0 393 81 2 11 860 394
 1 382 2 0 0 395 0 80 2 394 396 397 8004 0 0 0 0 3 5 0 0 0 FFTFFFFFFFFFFFFF2 3 8
3 1 395 79e2 79 16 397 SDL/TYSA_DENSITY80 2 392 398 399 9000 0 0 0 0 3 5 0 0 0 F
FTFFFFFFFFFFFFF9 1 82 1 393 1 79 24 399 BODY_IN_LIGHTWEIGHT_PERM80 2 391 400 401
 9000 0 0 0 0 3 5 0 0 0 FFTFFFFFFFFFFFFF9 1 79 16 401 BODY_RECIPE_200180 1 389 4
02 403 9000 1 1 1 1 1 1 1 1 0 FFTFFFFFFFFFFFFF1 82 1 390 42505 79 10 403 BODY_MA
TCH80 2 387 404 405 9000 0 0 0 0 3 5 0 0 0 FFTFTTTFFTFFFFFF10 10 98 255 6 388 11
0 111 122 122 108 101 79 23 405 SWIMPLICITBODYNAME_ID_U80 2 385 406 407 9000 0 0
 0 0 3 5 0 0 0 FFTFFFFFFFFFFFFF9 1 82 1 386 274 79 30 407 LAST_BODY_MODIFYING_FE
ATURE_ID80 2 383 408 409 9000 0 0 0 0 3 5 0 0 0 FFTFFFFFFFFFFTFF9 1 82 1 384 666
 79 19 409 ENT_TIME_STAMP_200180 2 10 410 411 9000 0 0 0 0 3 5 0 0 0 FFTFFFFFFFF
FFFFF9 1 82 1 12 108 79 12 411 ATOM_ID_20011 0 
